<svg width="234" height="27" viewBox="0 0 234 27" fill="none" xmlns="http://www.w3.org/2000/svg">
<rect width="233.954" height="26.1215" rx="13.0607" fill="#003D1B"/>
<path d="M31.2595 19.349L36.2995 8.149H38.3475L43.4035 19.349H41.2275L36.8915 9.253H37.7235L33.4035 19.349H31.2595ZM33.5795 16.757L34.1395 15.125H40.1875L40.7475 16.757H33.5795ZM48.1738 19.461C47.3525 19.461 46.6111 19.2797 45.9498 18.917C45.2991 18.5437 44.7871 18.0317 44.4138 17.381C44.0405 16.7303 43.8538 15.9623 43.8538 15.077C43.8538 14.1917 44.0405 13.4237 44.4138 12.773C44.7871 12.1223 45.2991 11.6157 45.9498 11.253C46.6111 10.8903 47.3525 10.709 48.1738 10.709C48.8885 10.709 49.5285 10.869 50.0938 11.189C50.6591 11.4983 51.1071 11.973 51.4378 12.613C51.7685 13.253 51.9338 14.0743 51.9338 15.077C51.9338 16.069 51.7738 16.8903 51.4538 17.541C51.1338 18.181 50.6911 18.661 50.1258 18.981C49.5605 19.301 48.9098 19.461 48.1738 19.461ZM48.4138 17.749C48.8938 17.749 49.3205 17.6423 49.6938 17.429C50.0778 17.2157 50.3818 16.9063 50.6058 16.501C50.8405 16.0957 50.9578 15.621 50.9578 15.077C50.9578 14.5223 50.8405 14.0477 50.6058 13.653C50.3818 13.2477 50.0778 12.9383 49.6938 12.725C49.3205 12.5117 48.8938 12.405 48.4138 12.405C47.9338 12.405 47.5018 12.5117 47.1178 12.725C46.7445 12.9383 46.4405 13.2477 46.2058 13.653C45.9818 14.0477 45.8698 14.5223 45.8698 15.077C45.8698 15.621 45.9818 16.0957 46.2058 16.501C46.4405 16.9063 46.7445 17.2157 47.1178 17.429C47.5018 17.6423 47.9338 17.749 48.4138 17.749ZM51.0058 19.349V17.333L51.0858 15.061L50.9258 12.789V7.477H52.9098V19.349H51.0058ZM55.5422 19.349V10.805H57.5422V19.349H55.5422ZM56.5502 9.397C56.1768 9.397 55.8675 9.27966 55.6222 9.045C55.3875 8.81033 55.2702 8.52767 55.2702 8.197C55.2702 7.85567 55.3875 7.573 55.6222 7.349C55.8675 7.11433 56.1768 6.997 56.5502 6.997C56.9235 6.997 57.2275 7.109 57.4622 7.333C57.7075 7.54633 57.8302 7.81833 57.8302 8.149C57.8302 8.501 57.7128 8.79966 57.4782 9.045C57.2435 9.27966 56.9342 9.397 56.5502 9.397ZM64.0872 19.461C63.1912 19.461 62.3912 19.2743 61.6872 18.901C60.9938 18.517 60.4498 17.9943 60.0552 17.333C59.6605 16.6717 59.4632 15.9197 59.4632 15.077C59.4632 14.2237 59.6605 13.4717 60.0552 12.821C60.4498 12.1597 60.9938 11.6423 61.6872 11.269C62.3912 10.8957 63.1912 10.709 64.0872 10.709C64.9192 10.709 65.6498 10.8797 66.2792 11.221C66.9192 11.5517 67.4045 12.0423 67.7352 12.693L66.1992 13.589C65.9432 13.1837 65.6285 12.885 65.2552 12.693C64.8925 12.501 64.4978 12.405 64.0712 12.405C63.5805 12.405 63.1378 12.5117 62.7432 12.725C62.3485 12.9383 62.0392 13.2477 61.8152 13.653C61.5912 14.0477 61.4792 14.5223 61.4792 15.077C61.4792 15.6317 61.5912 16.1117 61.8152 16.517C62.0392 16.9117 62.3485 17.2157 62.7432 17.429C63.1378 17.6423 63.5805 17.749 64.0712 17.749C64.4978 17.749 64.8925 17.653 65.2552 17.461C65.6285 17.269 65.9432 16.9703 66.1992 16.565L67.7352 17.461C67.4045 18.101 66.9192 18.597 66.2792 18.949C65.6498 19.2903 64.9192 19.461 64.0872 19.461ZM69.3859 19.349V10.805H71.3859V19.349H69.3859ZM70.3939 9.397C70.0206 9.397 69.7112 9.27966 69.4659 9.045C69.2312 8.81033 69.1139 8.52767 69.1139 8.197C69.1139 7.85567 69.2312 7.573 69.4659 7.349C69.7112 7.11433 70.0206 6.997 70.3939 6.997C70.7672 6.997 71.0712 7.109 71.3059 7.333C71.5512 7.54633 71.6739 7.81833 71.6739 8.149C71.6739 8.501 71.5566 8.79966 71.3219 9.045C71.0872 9.27966 70.7779 9.397 70.3939 9.397ZM77.8509 19.461C76.9762 19.461 76.1976 19.2743 75.5149 18.901C74.8322 18.517 74.2936 17.9943 73.8989 17.333C73.5042 16.6717 73.3069 15.9197 73.3069 15.077C73.3069 14.2237 73.5042 13.4717 73.8989 12.821C74.2936 12.1597 74.8322 11.6423 75.5149 11.269C76.1976 10.8957 76.9762 10.709 77.8509 10.709C78.7362 10.709 79.5202 10.8957 80.2029 11.269C80.8962 11.6423 81.4349 12.1543 81.8189 12.805C82.2136 13.4557 82.4109 14.213 82.4109 15.077C82.4109 15.9197 82.2136 16.6717 81.8189 17.333C81.4349 17.9943 80.8962 18.517 80.2029 18.901C79.5202 19.2743 78.7362 19.461 77.8509 19.461ZM77.8509 17.749C78.3416 17.749 78.7789 17.6423 79.1629 17.429C79.5469 17.2157 79.8456 16.9063 80.0589 16.501C80.2829 16.0957 80.3949 15.621 80.3949 15.077C80.3949 14.5223 80.2829 14.0477 80.0589 13.653C79.8456 13.2477 79.5469 12.9383 79.1629 12.725C78.7789 12.5117 78.3469 12.405 77.8669 12.405C77.3762 12.405 76.9389 12.5117 76.5549 12.725C76.1816 12.9383 75.8829 13.2477 75.6589 13.653C75.4349 14.0477 75.3229 14.5223 75.3229 15.077C75.3229 15.621 75.4349 16.0957 75.6589 16.501C75.8829 16.9063 76.1816 17.2157 76.5549 17.429C76.9389 17.6423 77.3709 17.749 77.8509 17.749ZM89.1714 10.709C89.8541 10.709 90.4621 10.8423 90.9954 11.109C91.5394 11.3757 91.9661 11.7863 92.2754 12.341C92.5847 12.885 92.7394 13.589 92.7394 14.453V19.349H90.7394V14.709C90.7394 13.9517 90.5581 13.3863 90.1954 13.013C89.8434 12.6397 89.3474 12.453 88.7074 12.453C88.2381 12.453 87.8221 12.549 87.4594 12.741C87.0967 12.933 86.8141 13.221 86.6114 13.605C86.4194 13.9783 86.3234 14.453 86.3234 15.029V19.349H84.3234V10.805H86.2274V13.109L85.8914 12.405C86.1901 11.861 86.6221 11.445 87.1874 11.157C87.7634 10.8583 88.4247 10.709 89.1714 10.709ZM100.541 19.349V17.621L100.429 17.253V14.229C100.429 13.6423 100.253 13.189 99.9005 12.869C99.5485 12.5383 99.0152 12.373 98.3005 12.373C97.8205 12.373 97.3459 12.4477 96.8765 12.597C96.4179 12.7463 96.0285 12.9543 95.7085 13.221L94.9245 11.765C95.3832 11.413 95.9272 11.1517 96.5565 10.981C97.1965 10.7997 97.8579 10.709 98.5405 10.709C99.7779 10.709 100.733 11.0077 101.405 11.605C102.087 12.1917 102.429 13.1037 102.429 14.341V19.349H100.541ZM97.8525 19.461C97.2125 19.461 96.6525 19.3543 96.1725 19.141C95.6925 18.917 95.3192 18.613 95.0525 18.229C94.7965 17.8343 94.6685 17.3917 94.6685 16.901C94.6685 16.421 94.7805 15.989 95.0045 15.605C95.2392 15.221 95.6179 14.917 96.1405 14.693C96.6632 14.469 97.3565 14.357 98.2205 14.357H100.701V15.685H98.3645C97.6819 15.685 97.2232 15.797 96.9885 16.021C96.7539 16.2343 96.6365 16.501 96.6365 16.821C96.6365 17.1837 96.7805 17.4717 97.0685 17.685C97.3565 17.8983 97.7565 18.005 98.2685 18.005C98.7592 18.005 99.1965 17.893 99.5805 17.669C99.9752 17.445 100.258 17.1143 100.429 16.677L100.765 17.877C100.573 18.3783 100.226 18.7677 99.7245 19.045C99.2339 19.3223 98.6099 19.461 97.8525 19.461ZM104.995 19.349V10.805H106.899V13.157L106.675 12.469C106.931 11.893 107.331 11.4557 107.875 11.157C108.43 10.8583 109.118 10.709 109.939 10.709V12.613C109.854 12.5917 109.774 12.581 109.699 12.581C109.625 12.5703 109.55 12.565 109.475 12.565C108.718 12.565 108.115 12.789 107.667 13.237C107.219 13.6743 106.995 14.3303 106.995 15.205V19.349H104.995ZM121.4 19.349V17.621L121.288 17.253V14.229C121.288 13.6423 121.112 13.189 120.76 12.869C120.408 12.5383 119.875 12.373 119.16 12.373C118.68 12.373 118.205 12.4477 117.736 12.597C117.277 12.7463 116.888 12.9543 116.568 13.221L115.784 11.765C116.243 11.413 116.787 11.1517 117.416 10.981C118.056 10.7997 118.717 10.709 119.4 10.709C120.637 10.709 121.592 11.0077 122.264 11.605C122.947 12.1917 123.288 13.1037 123.288 14.341V19.349H121.4ZM118.712 19.461C118.072 19.461 117.512 19.3543 117.032 19.141C116.552 18.917 116.179 18.613 115.912 18.229C115.656 17.8343 115.528 17.3917 115.528 16.901C115.528 16.421 115.64 15.989 115.864 15.605C116.099 15.221 116.477 14.917 117 14.693C117.523 14.469 118.216 14.357 119.08 14.357H121.56V15.685H119.224C118.541 15.685 118.083 15.797 117.848 16.021C117.613 16.2343 117.496 16.501 117.496 16.821C117.496 17.1837 117.64 17.4717 117.928 17.685C118.216 17.8983 118.616 18.005 119.128 18.005C119.619 18.005 120.056 17.893 120.44 17.669C120.835 17.445 121.117 17.1143 121.288 16.677L121.624 17.877C121.432 18.3783 121.085 18.7677 120.584 19.045C120.093 19.3223 119.469 19.461 118.712 19.461ZM129.71 19.461C128.836 19.461 128.057 19.2743 127.374 18.901C126.692 18.517 126.153 17.9943 125.758 17.333C125.364 16.6717 125.166 15.9197 125.166 15.077C125.166 14.2237 125.364 13.4717 125.758 12.821C126.153 12.1597 126.692 11.6423 127.374 11.269C128.057 10.8957 128.836 10.709 129.71 10.709C130.596 10.709 131.38 10.8957 132.062 11.269C132.756 11.6423 133.294 12.1543 133.678 12.805C134.073 13.4557 134.27 14.213 134.27 15.077C134.27 15.9197 134.073 16.6717 133.678 17.333C133.294 17.9943 132.756 18.517 132.062 18.901C131.38 19.2743 130.596 19.461 129.71 19.461ZM129.71 17.749C130.201 17.749 130.638 17.6423 131.022 17.429C131.406 17.2157 131.705 16.9063 131.918 16.501C132.142 16.0957 132.254 15.621 132.254 15.077C132.254 14.5223 132.142 14.0477 131.918 13.653C131.705 13.2477 131.406 12.9383 131.022 12.725C130.638 12.5117 130.206 12.405 129.726 12.405C129.236 12.405 128.798 12.5117 128.414 12.725C128.041 12.9383 127.742 13.2477 127.518 13.653C127.294 14.0477 127.182 14.5223 127.182 15.077C127.182 15.621 127.294 16.0957 127.518 16.501C127.742 16.9063 128.041 17.2157 128.414 17.429C128.798 17.6423 129.23 17.749 129.71 17.749ZM144.525 19.461C143.629 19.461 142.829 19.2743 142.125 18.901C141.431 18.517 140.887 17.9943 140.493 17.333C140.098 16.6717 139.901 15.9197 139.901 15.077C139.901 14.2237 140.098 13.4717 140.493 12.821C140.887 12.1597 141.431 11.6423 142.125 11.269C142.829 10.8957 143.629 10.709 144.525 10.709C145.357 10.709 146.087 10.8797 146.717 11.221C147.357 11.5517 147.842 12.0423 148.173 12.693L146.637 13.589C146.381 13.1837 146.066 12.885 145.693 12.693C145.33 12.501 144.935 12.405 144.509 12.405C144.018 12.405 143.575 12.5117 143.181 12.725C142.786 12.9383 142.477 13.2477 142.253 13.653C142.029 14.0477 141.917 14.5223 141.917 15.077C141.917 15.6317 142.029 16.1117 142.253 16.517C142.477 16.9117 142.786 17.2157 143.181 17.429C143.575 17.6423 144.018 17.749 144.509 17.749C144.935 17.749 145.33 17.653 145.693 17.461C146.066 17.269 146.381 16.9703 146.637 16.565L148.173 17.461C147.842 18.101 147.357 18.597 146.717 18.949C146.087 19.2903 145.357 19.461 144.525 19.461ZM155.166 19.349V17.621L155.054 17.253V14.229C155.054 13.6423 154.878 13.189 154.526 12.869C154.174 12.5383 153.64 12.373 152.926 12.373C152.446 12.373 151.971 12.4477 151.502 12.597C151.043 12.7463 150.654 12.9543 150.334 13.221L149.55 11.765C150.008 11.413 150.552 11.1517 151.182 10.981C151.822 10.7997 152.483 10.709 153.166 10.709C154.403 10.709 155.358 11.0077 156.03 11.605C156.712 12.1917 157.054 13.1037 157.054 14.341V19.349H155.166ZM152.478 19.461C151.838 19.461 151.278 19.3543 150.798 19.141C150.318 18.917 149.944 18.613 149.678 18.229C149.422 17.8343 149.294 17.3917 149.294 16.901C149.294 16.421 149.406 15.989 149.63 15.605C149.864 15.221 150.243 14.917 150.766 14.693C151.288 14.469 151.982 14.357 152.846 14.357H155.326V15.685H152.99C152.307 15.685 151.848 15.797 151.614 16.021C151.379 16.2343 151.262 16.501 151.262 16.821C151.262 17.1837 151.406 17.4717 151.694 17.685C151.982 17.8983 152.382 18.005 152.894 18.005C153.384 18.005 153.822 17.893 154.206 17.669C154.6 17.445 154.883 17.1143 155.054 16.677L155.39 17.877C155.198 18.3783 154.851 18.7677 154.35 19.045C153.859 19.3223 153.235 19.461 152.478 19.461ZM159.62 19.349V10.805H161.524V13.157L161.3 12.469C161.556 11.893 161.956 11.4557 162.5 11.157C163.055 10.8583 163.743 10.709 164.564 10.709V12.613C164.479 12.5917 164.399 12.581 164.324 12.581C164.25 12.5703 164.175 12.565 164.1 12.565C163.343 12.565 162.74 12.789 162.292 13.237C161.844 13.6743 161.62 14.3303 161.62 15.205V19.349H159.62ZM166.261 19.349V10.805H168.165V13.157L167.941 12.469C168.197 11.893 168.597 11.4557 169.141 11.157C169.696 10.8583 170.384 10.709 171.205 10.709V12.613C171.12 12.5917 171.04 12.581 170.965 12.581C170.89 12.5703 170.816 12.565 170.741 12.565C169.984 12.565 169.381 12.789 168.933 13.237C168.485 13.6743 168.261 14.3303 168.261 15.205V19.349H166.261ZM172.902 19.349V10.805H174.902V19.349H172.902ZM173.91 9.397C173.536 9.397 173.227 9.27966 172.982 9.045C172.747 8.81033 172.63 8.52767 172.63 8.197C172.63 7.85567 172.747 7.573 172.982 7.349C173.227 7.11433 173.536 6.997 173.91 6.997C174.283 6.997 174.587 7.109 174.822 7.333C175.067 7.54633 175.19 7.81833 175.19 8.149C175.19 8.501 175.072 8.79966 174.838 9.045C174.603 9.27966 174.294 9.397 173.91 9.397ZM182.375 10.709C183.057 10.709 183.665 10.8423 184.199 11.109C184.743 11.3757 185.169 11.7863 185.479 12.341C185.788 12.885 185.943 13.589 185.943 14.453V19.349H183.943V14.709C183.943 13.9517 183.761 13.3863 183.399 13.013C183.047 12.6397 182.551 12.453 181.911 12.453C181.441 12.453 181.025 12.549 180.663 12.741C180.3 12.933 180.017 13.221 179.815 13.605C179.623 13.9783 179.527 14.453 179.527 15.029V19.349H177.527V10.805H179.431V13.109L179.095 12.405C179.393 11.861 179.825 11.445 180.391 11.157C180.967 10.8583 181.628 10.709 182.375 10.709ZM193.328 10.709C194.01 10.709 194.618 10.8423 195.152 11.109C195.696 11.3757 196.122 11.7863 196.432 12.341C196.741 12.885 196.896 13.589 196.896 14.453V19.349H194.896V14.709C194.896 13.9517 194.714 13.3863 194.352 13.013C194 12.6397 193.504 12.453 192.864 12.453C192.394 12.453 191.978 12.549 191.616 12.741C191.253 12.933 190.97 13.221 190.768 13.605C190.576 13.9783 190.48 14.453 190.48 15.029V19.349H188.48V7.477H190.48V13.109L190.048 12.405C190.346 11.861 190.778 11.445 191.344 11.157C191.92 10.8583 192.581 10.709 193.328 10.709ZM203.288 19.461C202.414 19.461 201.635 19.2743 200.952 18.901C200.27 18.517 199.731 17.9943 199.336 17.333C198.942 16.6717 198.744 15.9197 198.744 15.077C198.744 14.2237 198.942 13.4717 199.336 12.821C199.731 12.1597 200.27 11.6423 200.952 11.269C201.635 10.8957 202.414 10.709 203.288 10.709C204.174 10.709 204.958 10.8957 205.64 11.269C206.334 11.6423 206.872 12.1543 207.256 12.805C207.651 13.4557 207.848 14.213 207.848 15.077C207.848 15.9197 207.651 16.6717 207.256 17.333C206.872 17.9943 206.334 18.517 205.64 18.901C204.958 19.2743 204.174 19.461 203.288 19.461ZM203.288 17.749C203.779 17.749 204.216 17.6423 204.6 17.429C204.984 17.2157 205.283 16.9063 205.496 16.501C205.72 16.0957 205.832 15.621 205.832 15.077C205.832 14.5223 205.72 14.0477 205.496 13.653C205.283 13.2477 204.984 12.9383 204.6 12.725C204.216 12.5117 203.784 12.405 203.304 12.405C202.814 12.405 202.376 12.5117 201.992 12.725C201.619 12.9383 201.32 13.2477 201.096 13.653C200.872 14.0477 200.76 14.5223 200.76 15.077C200.76 15.621 200.872 16.0957 201.096 16.501C201.32 16.9063 201.619 17.2157 201.992 17.429C202.376 17.6423 202.808 17.749 203.288 17.749Z" fill="#ADFFD1"/>
<g clip-path="url(#clip0_52_163)">
<path d="M4.86492 7.12687C4.59844 7.76735 4.92642 7.97457 6.2588 7.97457H7.55019L8.20614 11.7609C8.57511 13.8707 9.00557 15.7545 9.16956 15.9994C9.66152 16.6775 10.7274 16.8282 15.0526 16.8282C19.2342 16.8282 19.9722 16.6964 19.6852 16.0182C19.5827 15.7545 18.9472 15.7168 14.9501 15.6603C12.4288 15.6226 10.3175 15.5661 10.256 15.5096C10.215 15.4531 10.092 15.227 10.0305 14.9822L9.887 14.5677H14.2531C18.9267 14.5677 19.9722 14.417 20.4641 13.7389C20.8126 13.2491 21.6735 9.01064 21.5095 8.61505C21.3865 8.33248 20.6486 8.25713 20.4846 8.50202C20.4231 8.59621 20.1976 9.65111 19.9722 10.8756C19.7467 12.1 19.5007 13.1549 19.4392 13.2303C19.3572 13.2868 17.1844 13.3621 14.6016 13.3998C10.461 13.4563 9.887 13.4186 9.78451 13.1549C9.70251 12.9854 9.41554 11.516 9.10806 9.896L8.57511 6.9385L6.77126 6.88198C5.31588 6.84431 4.96741 6.88198 4.86492 7.12687Z" fill="#ADFFD1"/>
<path d="M14.3556 6.95733C14.2736 7.03268 14.2121 7.692 14.2121 8.40783V9.72646L13.7406 9.33087C13.1872 8.84109 12.6132 8.80342 12.4288 9.21785C12.2853 9.55692 14.3146 11.5537 14.8271 11.5537C15.3395 11.5537 17.3688 9.55692 17.2254 9.21785C17.0409 8.78458 16.4054 8.84109 15.934 9.31203C15.5445 9.70762 15.5445 9.70762 15.442 8.33248C15.36 7.10803 15.278 6.93849 14.9295 6.88198C14.6836 6.84431 14.4376 6.88198 14.3556 6.95733Z" fill="#ADFFD1"/>
<path d="M10.2559 18.2976C9.80498 18.7497 9.82548 19.3336 10.2764 19.7104C11.0554 20.3697 12.3673 19.8799 12.3673 18.9569C12.3673 18.0715 10.9119 17.6194 10.2559 18.2976Z" fill="#ADFFD1"/>
<path d="M17.0204 18.2976C16.5694 18.7497 16.5899 19.3336 17.0409 19.7104C17.8198 20.3697 19.1317 19.8799 19.1317 18.9569C19.1317 18.0715 17.6764 17.6194 17.0204 18.2976Z" fill="#ADFFD1"/>
</g>
<defs>
<clipPath id="clip0_52_163">
<rect width="19.6783" height="18.0841" fill="white" transform="translate(4.37299 4.01868)"/>
</clipPath>
</defs>
</svg>
